<svg xmlns="http://www.w3.org/2000/svg" width="190.02" height="190.02" viewBox="0 0 190.02 190.02">
  <g id="Group_22" data-name="Group 22" transform="translate(-4625.99 -2499)">
    <rect id="Rectangle_11" data-name="Rectangle 11" width="146" height="125" transform="translate(4648 2538)" fill="#fff"/>
    <g id="Livello_1-2" transform="translate(4625.99 2499)">
      <path id="Path_80" data-name="Path 80" d="M170.48,20.42C155.96,5.92,134.1,0,95.01,0S34.76,5.73,20.09,20.45C3.41,37.16,0,62.35,0,95.01c0,38.94,5.64,59.74,20.14,74.21,14.63,14.58,37.01,20.8,74.87,20.8,32.8,0,58.19-3.54,75.47-20.83,16.43-16.42,19.54-38.74,19.54-74.18s-3.26-58.33-19.54-74.59ZM150.21,123.94a35.331,35.331,0,0,1-12.79,5.8,103.356,103.356,0,0,1-15.53,2.59c-6.76.68-13.53,1.02-20.32,1.08-.16,0-.31,0-.47-.01H92.96c-.2,0-.4.02-.61.01-4.17-.04-8.34-.15-12.5-.39-2.21-.13-4.41-.25-6.62-.41-2.6-.19-5.19-.42-7.78-.71a104.628,104.628,0,0,1-10.41-1.59,37.441,37.441,0,0,1-12.57-5.17,23.566,23.566,0,0,1-8.49-8.93c-2.2-4.27-2.33-8.75-1.31-13.32A19.261,19.261,0,0,1,49.41,87.91a18.957,18.957,0,0,1,5.37.16l.06.07s.04-.04.03-.04a.435.435,0,0,0-.06-.07,16.1,16.1,0,0,1-1.12-4.2,25,25,0,0,1,1.79-12.07c3.31-8.21,9.21-13.3,18.06-14.77a11.869,11.869,0,0,0,2.29-.36h.67c.17.2.41.13.62.13.95,0,1.9,0,2.86.01a21.591,21.591,0,0,1,7.46,1.89,25.22,25.22,0,0,1,11.65,9.75,12.123,12.123,0,0,1,1.72,4.62,15.933,15.933,0,0,1,9.43-6.3,14.991,14.991,0,0,1,11.06,1.64,15.457,15.457,0,0,1,7.13,8.56,16.2,16.2,0,0,1-.17,11.17,29.315,29.315,0,0,1,3.6-.92,21.247,21.247,0,0,1,18.92,5.53,21,21,0,0,1,6.98,12.88c1,7.53-1.47,13.71-7.55,18.34Z" fill="#059abe"/>
    </g>
  </g>
</svg>
